<svg width="80" height="80" viewBox="0 0 80 80" fill="none" xmlns="http://www.w3.org/2000/svg">
<rect width="80" height="80" rx="10" fill="#EF5E1B"/>
<path d="M21.4255 37.9259C25.9292 34.3704 28.2403 27.7531 28.8329 24.8889C28.2403 25.0864 28.1217 25.1852 32.3884 24C36.6551 22.8148 35.7464 20.5432 34.7588 19.5556C35.7069 20.7407 39.302 23.0123 40.981 24C44.4378 23.6049 51.6477 23.7037 52.8329 27.2593C54.9662 34.3704 58.66 37.9259 60.2403 38.8148M21.4255 37.9259C20.4964 37.7711 18.8392 37.1672 18.1662 35.8859M21.4255 37.9259C21.081 40.6126 21.1354 44.366 22.0762 48.2963M60.2403 38.8148C59.8862 42.3944 59.2499 45.5394 58.4076 48.2963M60.2403 38.8148C60.5607 37.9335 61.4141 36.4543 62.6107 36.3067M58.4076 48.2963C61.4451 48.0593 63.6604 44.2469 64.3884 42.3704C64.7835 40.6914 65.1588 37.1556 63.4995 36.4444C63.1862 36.3102 62.8892 36.2724 62.6107 36.3067M58.4076 48.2963C58.2467 49.3879 57.7324 51.7177 56.9625 52.3041M62.6107 36.3067C63.2032 32.8958 63.8551 25.3037 61.7218 22.2222C52.5366 8.88889 42.4625 13.037 37.7218 12.1481C33.9292 11.437 31.4008 9.67901 30.6107 8.88889C28.8329 13.9259 24.3884 13.6296 20.5366 18.3704C16.6847 23.1111 17.8699 32 17.8699 34.6667C17.8699 35.1278 17.9806 35.5326 18.1662 35.8859M18.1662 35.8859C16.6847 36.1708 14.1958 37.6296 16.0921 41.1852C18.4625 45.6296 19.4677 47.1111 22.0762 48.2963M22.0762 48.2963C22.3224 49.5854 22.9334 52.1918 23.4075 52.3041M28.8329 33.1852H36.7408M43.8519 33.1852H51.8519M24.5927 51.5556L25.1852 49.4815L34.3704 49.7778C35.3186 43.6148 38.7161 40.8889 40.2964 40.2963C41.8766 40.5926 45.3927 42.9037 46.8149 49.7778L55.1112 49.4815L56.0001 51.5556M24.5927 51.5556C32.0373 51.5556 35.5041 59.8146 36.5346 64.8889M24.5927 51.5556L23.4075 52.3041M18.963 55.1111C19.5556 59.9506 22.5778 69.9259 29.926 71.1111M18.963 55.1111C23.3087 57.5802 31.5852 64.237 29.926 71.1111M18.963 55.1111L23.4075 52.3041M29.926 71.1111L36.7408 66.0741C36.6881 65.705 36.6196 65.3078 36.5346 64.8889M56.0001 51.5556C47.9597 51.5556 44.9874 59.5827 44.3014 64.8889M56.0001 51.5556L56.9625 52.3041M61.3334 55.7037C61.2346 59.8518 58.963 68.7407 50.6667 71.1111M61.3334 55.7037C57.9754 57.1852 51.1408 62.3407 50.6667 71.1111M61.3334 55.7037L56.9625 52.3041M50.6667 71.1111L44.1482 66.6667C44.1694 66.1259 44.2189 65.5271 44.3014 64.8889M36.5346 64.8889C37.5943 65.4815 40.6313 66.3111 44.3014 64.8889M37.3334 52.1481L38.5186 53.9259M43.5556 52.4444L42.0741 54.2222M42.0741 56L43.2593 57.7778M38.8149 56.5926L37.6297 57.7778" stroke="black"/>
<ellipse cx="32.889" cy="37.9259" rx="1.48148" ry="2.96296" fill="black"/>
<ellipse cx="48.2962" cy="37.9259" rx="1.48148" ry="2.96296" fill="black"/>
<path d="M45.1296 54.8148C45.1296 55.6775 44.6463 56.5037 43.7747 57.1331C42.9038 57.7621 41.6756 58.1667 40.2962 58.1667C38.9169 58.1667 37.6887 57.7621 36.8177 57.1331C35.9461 56.5037 35.4629 55.6775 35.4629 54.8148C35.4629 53.9521 35.9461 53.126 36.8177 52.4965C37.6887 51.8675 38.9169 51.463 40.2962 51.463C41.6756 51.463 42.9038 51.8675 43.7747 52.4965C44.6463 53.126 45.1296 53.9521 45.1296 54.8148Z" stroke="black"/>
<path d="M42.1666 55.1111C42.1666 55.3828 42.0014 55.6901 41.6082 55.9522C41.2185 56.212 40.6514 56.3889 39.9999 56.3889C39.3485 56.3889 38.7813 56.212 38.3917 55.9522C37.9985 55.6901 37.8333 55.3828 37.8333 55.1111C37.8333 54.8394 37.9985 54.5322 38.3917 54.2701C38.7813 54.0103 39.3485 53.8333 39.9999 53.8333C40.6514 53.8333 41.2185 54.0103 41.6082 54.2701C42.0014 54.5322 42.1666 54.8394 42.1666 55.1111Z" stroke="black"/>
</svg>
