<svg width="80" height="80" viewBox="0 0 80 80" fill="none" xmlns="http://www.w3.org/2000/svg">
<rect width="80" height="80" rx="10" fill="#EF8924"/>
<path d="M21.4255 40.2963C25.9292 36.7407 28.2403 30.1235 28.8329 27.2593C28.2403 27.4568 28.1217 27.5556 32.3884 26.3704C36.6551 25.1852 35.7464 22.9136 34.7588 21.9259C35.7069 23.1111 39.302 25.3827 40.981 26.3704C44.4378 25.9753 51.6477 26.0741 52.8329 29.6296C54.9662 36.7407 58.66 40.2963 60.2403 41.1852M21.4255 40.2963C20.4964 40.1415 18.8392 39.5376 18.1662 38.2563M21.4255 40.2963C21.302 41.2593 21.2298 42.3594 21.2312 43.5556M39.7958 68.7407C31.9657 66.7832 27.2456 62.256 24.5255 57.1852M39.7958 68.7407C43.8558 68.6054 50.9476 65.8462 55.6973 57.1852M39.7958 68.7407C38.6107 67.5556 42.0741 64.8889 43.2593 61.9259C44.2075 59.5556 42.4692 56.7901 41.4815 55.7037M60.2403 41.1852C60.5607 40.3039 61.4141 38.8247 62.6107 38.6771M60.2403 41.1852C60.1804 41.7901 60.1126 42.3826 60.037 42.963M58.4076 50.6667C61.4451 50.4296 63.6604 46.6173 64.3884 44.7407C64.7835 43.0617 65.1588 39.5259 63.4995 38.8148C63.1862 38.6806 62.8892 38.6428 62.6107 38.6771M58.4076 50.6667C59.1075 48.3757 59.6653 45.8167 60.037 42.963M58.4076 50.6667C57.6516 53.1408 56.7298 55.3025 55.6973 57.1852M62.6107 38.6771C63.2032 35.2662 63.8551 27.6741 61.7218 24.5926C52.5366 11.2593 42.4625 15.4074 37.7218 14.5185C33.9292 13.8074 31.4008 12.0494 30.6107 11.2593C28.8329 16.2963 24.3884 16 20.5366 20.7407C16.6847 25.4815 17.8699 34.3704 17.8699 37.037C17.8699 37.4981 17.9806 37.903 18.1662 38.2563M18.1662 38.2563C16.6847 38.5412 14.1958 40 16.0921 43.5556C18.4625 48 19.4677 49.4815 22.0762 50.6667M22.0762 50.6667C21.4726 48.1452 21.2339 45.6965 21.2312 43.5556M22.0762 50.6667C22.5954 52.8355 23.3845 55.0582 24.5255 57.1852M28.4445 35.5556H36.7408M43.2593 35.5556H51.5556M26.6667 49.1852L40.2964 44.1482L53.3334 49.1852M26.6667 49.1852L21.2312 43.5556M26.6667 49.1852C27.0511 51.1605 27.1609 55.5259 24.5255 57.1852M53.3334 49.1852L60.037 42.963M53.3334 49.1852C53.0328 50.963 53.0848 55.0519 55.6973 57.1852M33.1852 50.0741L40.2964 47.1111L46.5186 50.0741" stroke="black"/>
<ellipse cx="32.2962" cy="40.2963" rx="1.48148" ry="2.96296" fill="black"/>
<ellipse cx="47.7036" cy="40.2963" rx="1.48148" ry="2.96296" fill="black"/>
</svg>
