<svg width="80" height="80" viewBox="0 0 80 80" fill="none" xmlns="http://www.w3.org/2000/svg">
<rect width="80" height="80" rx="10" fill="#42F09A"/>
<rect width="80" height="80" rx="10" fill="#42F09A"/>
<path d="M21.4255 40.2963C25.9292 36.7408 28.2403 30.1235 28.8329 27.2593C28.2403 27.4568 28.1217 27.5556 32.3884 26.3704C36.6551 25.1852 35.7464 22.9136 34.7588 21.9259C35.7069 23.1111 39.302 25.3827 40.981 26.3704C44.4378 25.9753 51.6477 26.0741 52.8329 29.6296C54.9662 36.7408 58.66 40.2963 60.2403 41.1852M21.4255 40.2963C20.4964 40.1415 18.8392 39.5376 18.1662 38.2563M21.4255 40.2963C21.081 42.983 21.1354 46.7364 22.0762 50.6667M60.2403 41.1852C59.8862 44.7648 59.2499 47.9098 58.4076 50.6667M60.2403 41.1852C60.5607 40.3039 61.4141 38.8247 62.6107 38.6771M58.4076 50.6667C54.1742 64.5226 44.7383 68.576 39.7958 68.7408C28.6812 65.9621 23.8331 58.006 22.0762 50.6667M58.4076 50.6667C61.4451 50.4296 63.6604 46.6173 64.3884 44.7408C64.7835 43.0617 65.1588 39.5259 63.4995 38.8148C63.1862 38.6806 62.8892 38.6428 62.6107 38.6771M62.6107 38.6771C63.2032 35.2662 63.8551 27.6741 61.7218 24.5926C52.5366 11.2593 42.4625 15.4074 37.7218 14.5185C33.9292 13.8074 31.4008 12.0494 30.6107 11.2593C28.8329 16.2963 24.3884 16 20.5366 20.7408C16.6847 25.4815 17.8699 34.3704 17.8699 37.0371C17.8699 37.4982 17.9806 37.903 18.1662 38.2563M18.1662 38.2563C16.6847 38.5412 14.1958 40 16.0921 43.5556C18.4625 48 19.4677 49.4815 22.0762 50.6667M28.1482 36.1482C29.4322 34.963 32.8297 33.3037 36.1482 36.1482M44.1482 36.1482C45.2346 34.963 48.1778 33.3037 51.2593 36.1482M37.926 46.8148C36.642 47.605 35.2593 49.363 40.0001 50.0741C41.8766 49.679 44.9778 48.5334 42.3704 47.1111M35.5556 62.5315C36.9464 64.4515 38.8301 65.1267 40.0001 65.1852C41.9292 64.9821 43.2749 63.902 44.1907 62.5315M35.5556 62.5315C34.5983 61.21 33.8745 59.2986 33.7778 56.5926C36.1482 55.2099 41.8964 53.3334 45.926 56.8889C45.8695 58.3568 45.4129 60.7027 44.1907 62.5315M35.5556 62.5315C36.9666 61.4495 40.6691 59.9345 44.1907 62.5315" stroke="black"/>
<ellipse cx="32.2963" cy="40.2963" rx="1.48148" ry="2.96296" fill="black"/>
<ellipse cx="47.7038" cy="40.2963" rx="1.48148" ry="2.96296" fill="black"/>
</svg>
