<svg width="80" height="80" viewBox="0 0 80 80" fill="none" xmlns="http://www.w3.org/2000/svg">
<rect width="80" height="80" rx="10" fill="#EF3711"/>
<path d="M21.4255 37.9259C25.9292 34.3704 28.2403 27.7531 28.8329 24.8889C28.2403 25.0864 28.1217 25.1852 32.3884 24C36.6551 22.8148 35.7464 20.5432 34.7588 19.5556C35.7069 20.7407 39.302 23.0123 40.981 24C44.4378 23.6049 51.6477 23.7037 52.8329 27.2593C54.9662 34.3704 58.66 37.9259 60.2403 38.8148M21.4255 37.9259C20.4964 37.7711 18.8392 37.1672 18.1662 35.8859M21.4255 37.9259C21.081 40.6126 21.1354 44.366 22.0762 48.2963M60.2403 38.8148C59.8862 42.3944 59.2499 45.5394 58.4076 48.2963M60.2403 38.8148C60.5607 37.9335 61.4141 36.4543 62.6107 36.3067M58.4076 48.2963C61.4451 48.0593 63.6604 44.2469 64.3884 42.3704C64.7835 40.6914 65.1588 37.1556 63.4995 36.4444C63.1862 36.3102 62.8892 36.2724 62.6107 36.3067M58.4076 48.2963C56.4117 54.8289 53.2594 59.1825 49.9668 61.9771M62.6107 36.3067C63.2032 32.8958 63.8551 25.3037 61.7218 22.2222C52.5366 8.88889 42.4625 13.037 37.7218 12.1481C33.9292 11.437 31.4008 9.67901 30.6107 8.88889C28.8329 13.9259 24.3884 13.6296 20.5366 18.3704C16.6847 23.1111 17.8699 32 17.8699 34.6667C17.8699 35.1278 17.9806 35.5326 18.1662 35.8859M18.1662 35.8859C16.6847 36.1708 14.1958 37.6296 16.0921 41.1852C18.4625 45.6296 19.4677 47.1111 22.0762 48.2963M22.0762 48.2963C23.2367 53.144 25.7458 58.2609 30.5186 61.9771M30.5186 61.9771V64.7663M30.5186 61.9771C30.8676 61.4304 31.2163 60.92 31.5644 60.4444M49.9668 61.9771V64.7663M49.9668 61.9771C49.6882 61.4786 49.3665 60.9619 49.0054 60.4444M30.5186 64.7663V67.5556C33.41 70.5185 41.3475 74.6667 49.9668 67.5556V64.7663M30.5186 64.7663C33.5768 62.2563 41.748 58.7423 49.9668 64.7663M31.5644 60.4444C34.244 58.5679 41.4836 55.9407 49.0054 60.4444M31.5644 60.4444C32.5563 59.0891 33.5427 58.0157 34.5153 57.1852M49.0054 60.4444C48.2042 59.2965 47.2092 58.1455 46.0625 57.1852M35.5556 64.5926H44.4445M32.5927 66.3704H47.7038M35.5556 68.1481H44.4445M34.5153 57.1852C31.4053 54.2222 25.4223 45.5704 26.3704 34.6667C36.8001 26.6074 48.889 31.3086 53.6297 34.6667C54.4265 46.2222 48.2964 54.2222 46.0625 57.1852M34.5153 57.1852C38.91 53.4322 43.0203 54.6377 46.0625 57.1852" stroke="black"/>
<path d="M35.648 39.1111C35.648 39.9952 35.3786 40.7764 34.967 41.3253C34.5554 41.874 34.0251 42.1667 33.4814 42.1667C32.9376 42.1667 32.4073 41.874 31.9957 41.3253C31.5841 40.7764 31.3147 39.9952 31.3147 39.1111C31.3147 38.227 31.5841 37.4458 31.9957 36.897C32.4073 36.3482 32.9376 36.0556 33.4814 36.0556C34.0251 36.0556 34.5554 36.3482 34.967 36.897C35.3786 37.4458 35.648 38.227 35.648 39.1111Z" stroke="black"/>
<path d="M48.6851 39.1111C48.6851 39.9952 48.4157 40.7764 48.0041 41.3253C47.5926 41.874 47.0622 42.1667 46.5185 42.1667C45.9748 42.1667 45.4444 41.874 45.0329 41.3253C44.6212 40.7764 44.3518 39.9952 44.3518 39.1111C44.3518 38.227 44.6212 37.4458 45.0329 36.897C45.4444 36.3482 45.9748 36.0556 46.5185 36.0556C47.0622 36.0556 47.5926 36.3482 48.0041 36.897C48.4157 37.4458 48.6851 38.227 48.6851 39.1111Z" stroke="black"/>
</svg>
