<svg width="80" height="80" viewBox="0 0 80 80" fill="none" xmlns="http://www.w3.org/2000/svg">
<rect width="80" height="80" rx="10" fill="#EDCE35"/>
<path d="M21.4255 40.2963C25.9292 36.7407 28.2403 30.1234 28.8329 27.2592C28.2403 27.4568 28.1217 27.5555 32.3884 26.3704C36.6551 25.1852 35.7464 22.9136 34.7588 21.9259C35.7069 23.1111 39.302 25.3827 40.981 26.3704C44.4378 25.9753 51.6477 26.0741 52.8329 29.6296C54.9662 36.7407 58.66 40.2963 60.2403 41.1852M21.4255 40.2963C20.4964 40.1414 18.8392 39.5375 18.1662 38.2563M21.4255 40.2963C21.081 42.983 21.1354 46.7364 22.0762 50.6667M60.2403 41.1852C59.8862 44.7648 59.2499 47.9098 58.4076 50.6667M60.2403 41.1852C60.5607 40.3039 61.4141 38.8247 62.6107 38.6771M58.4076 50.6667C54.1742 64.5225 44.7383 68.576 39.7958 68.7407C28.6812 65.9621 23.8331 58.006 22.0762 50.6667M58.4076 50.6667C61.4451 50.4296 63.6604 46.6173 64.3884 44.7407C64.7835 43.0617 65.1588 39.5259 63.4995 38.8148C63.1862 38.6805 62.8892 38.6427 62.6107 38.6771M62.6107 38.6771C63.2032 35.2662 63.8551 27.6741 61.7218 24.5926C52.5366 11.2592 42.4625 15.4074 37.7218 14.5185C33.9292 13.8074 31.4008 12.0494 30.6107 11.2592C28.8329 16.2963 24.3884 16 20.5366 20.7407C16.6847 25.4815 17.8699 34.3704 17.8699 37.037C17.8699 37.4981 17.9806 37.9029 18.1662 38.2563M18.1662 38.2563C16.6847 38.5412 14.1958 40 16.0921 43.5555C18.4625 48 19.4677 49.4815 22.0762 50.6667M28.8329 36.4444C30.1849 35.0617 33.5408 33.1259 36.1482 36.4444M44.1482 36.4444C45.3334 34.963 48.4149 32.8889 51.2593 36.4444M37.6297 46.8148C36.7408 47.5062 35.9704 49.1259 40.0001 50.0741C41.7778 49.679 44.8001 48.4741 42.6667 46.8148M32.5927 60.7407H47.7038" stroke="black"/>
<ellipse cx="32.2962" cy="40.2963" rx="1.48148" ry="2.96296" fill="black"/>
<ellipse cx="47.7036" cy="40.2963" rx="1.48148" ry="2.96296" fill="black"/>
</svg>
