<svg width="100" height="100" viewBox="0 0 100 100" fill="none" xmlns="http://www.w3.org/2000/svg">
<path d="M45.8333 0V12.5H54.1667V0H45.8333ZM17.5944 11.7025L11.7025 17.5944L20.5404 26.4323L26.4323 20.5404L17.5944 11.7025ZM82.4056 11.7025L73.5677 20.5404L79.4596 26.4323L88.2975 17.5944L82.4056 11.7025ZM50 20.8333C33.941 20.8333 20.8333 33.941 20.8333 50C20.8333 66.059 33.941 79.1667 50 79.1667C66.059 79.1667 79.1667 66.059 79.1667 50C79.1667 33.941 66.059 20.8333 50 20.8333ZM50 29.1667C61.5553 29.1667 70.8333 38.4447 70.8333 50C70.8333 61.5553 61.5553 70.8333 50 70.8333C38.4447 70.8333 29.1667 61.5553 29.1667 50C29.1667 38.4447 38.4447 29.1667 50 29.1667ZM0 45.8333V54.1667H12.5V45.8333H0ZM87.5 45.8333V54.1667H100V45.8333H87.5ZM20.5404 73.5677L11.7025 82.4056L17.5944 88.2975L26.4323 79.4596L20.5404 73.5677ZM79.4596 73.5677L73.5677 79.4596L82.4056 88.2975L88.2975 82.4056L79.4596 73.5677ZM45.8333 87.5V100H54.1667V87.5H45.8333Z" fill="#45A730"/>
</svg>
