<svg width="50" height="50" viewBox="0 0 50 50" fill="none" xmlns="http://www.w3.org/2000/svg">
<circle cx="25" cy="25" r="24" stroke="#535353" stroke-width="2"/>
<path fill-rule="evenodd" clip-rule="evenodd" d="M23.9827 10.5439L12.1129 33.7044C11.7133 34.4843 12.4387 35.3646 13.2806 35.1212L24.6102 31.8461C24.7961 31.7924 24.9935 31.7938 25.1787 31.85L35.8626 35.0968C36.6982 35.3507 37.435 34.4868 37.0523 33.7018L25.7715 10.5618C25.4104 9.82104 24.3586 9.81052 23.9827 10.5439ZM25.0576 31C27.2668 31 29.0576 29.2091 29.0576 27C29.0576 24.7909 27.2668 23 25.0576 23C22.8485 23 21.0576 24.7909 21.0576 27C21.0576 29.2091 22.8485 31 25.0576 31Z" fill="#18A0FB"/>
<path d="M12.1129 33.7044L11.668 33.4764L11.668 33.4764L12.1129 33.7044ZM23.9827 10.5439L24.4277 10.772L24.4277 10.772L23.9827 10.5439ZM13.2806 35.1212L13.4194 35.6015L13.4194 35.6015L13.2806 35.1212ZM24.6102 31.8461L24.7491 32.3265L24.7491 32.3265L24.6102 31.8461ZM25.1787 31.85L25.0333 32.3284L25.0333 32.3284L25.1787 31.85ZM35.8626 35.0968L35.7173 35.5752L35.7173 35.5752L35.8626 35.0968ZM37.0523 33.7018L37.5017 33.4827L37.5017 33.4827L37.0523 33.7018ZM25.7715 10.5618L25.3221 10.7809L25.3221 10.7809L25.7715 10.5618ZM12.5579 33.9325L24.4277 10.772L23.5377 10.3159L11.668 33.4764L12.5579 33.9325ZM13.1417 34.6409C12.7208 34.7625 12.3581 34.3224 12.5579 33.9325L11.668 33.4764C11.0685 34.6462 12.1566 35.9666 13.4194 35.6015L13.1417 34.6409ZM24.4714 31.3658L13.1417 34.6409L13.4194 35.6015L24.7491 32.3265L24.4714 31.3658ZM25.3241 31.3716C25.0464 31.2872 24.7502 31.2852 24.4714 31.3658L24.7491 32.3265C24.842 32.2996 24.9407 32.3003 25.0333 32.3284L25.3241 31.3716ZM36.008 34.6184L25.3241 31.3716L25.0333 32.3284L35.7173 35.5752L36.008 34.6184ZM36.6028 33.9209C36.7942 34.3134 36.4258 34.7454 36.008 34.6184L35.7173 35.5752C36.9706 35.9561 38.0757 34.6602 37.5017 33.4827L36.6028 33.9209ZM25.3221 10.7809L36.6028 33.9209L37.5017 33.4827L26.221 10.3427L25.3221 10.7809ZM24.4277 10.772C24.6156 10.4053 25.1415 10.4105 25.3221 10.7809L26.221 10.3427C25.6793 9.23156 24.1015 9.21578 23.5377 10.3159L24.4277 10.772ZM28.5576 27C28.5576 28.933 26.9906 30.5 25.0576 30.5V31.5C27.5429 31.5 29.5576 29.4853 29.5576 27H28.5576ZM25.0576 23.5C26.9906 23.5 28.5576 25.067 28.5576 27H29.5576C29.5576 24.5147 27.5429 22.5 25.0576 22.5V23.5ZM21.5576 27C21.5576 25.067 23.1246 23.5 25.0576 23.5V22.5C22.5723 22.5 20.5576 24.5147 20.5576 27H21.5576ZM25.0576 30.5C23.1246 30.5 21.5576 28.933 21.5576 27H20.5576C20.5576 29.4853 22.5723 31.5 25.0576 31.5V30.5Z" fill="#18A0FB"/>
</svg>
